<svg xmlns="http://www.w3.org/2000/svg" xmlns:xlink="http://www.w3.org/1999/xlink" viewBox="0,0,255.99332,255.99332" width="240px" height="240px"><defs><linearGradient x1="-16.16" y1="-35.842" x2="36.341" y2="16.66" gradientUnits="userSpaceOnUse" id="color-1"><stop offset="0" stop-color="#ffffff"></stop><stop offset="1" stop-color="#8dd4f1"></stop></linearGradient><linearGradient x1="-20.327" y1="-31.675" x2="32.174" y2="20.827" gradientUnits="userSpaceOnUse" id="color-2"><stop offset="0" stop-color="#ffffff"></stop><stop offset="1" stop-color="#53bde9"></stop></linearGradient><linearGradient x1="-25.461" y1="-26.541" x2="27.041" y2="25.961" gradientUnits="userSpaceOnUse" id="color-3"><stop offset="0" stop-color="#ffffff"></stop><stop offset="1" stop-color="#1da6e4"></stop></linearGradient><linearGradient x1="-28.524" y1="-23.478" x2="23.978" y2="29.024" gradientUnits="userSpaceOnUse" id="color-4"><stop offset="0" stop-color="#ffffff"></stop><stop offset="1" stop-color="#4e82cf"></stop></linearGradient><linearGradient x1="-31.987" y1="-20.015" x2="20.514" y2="32.487" gradientUnits="userSpaceOnUse" id="color-5"><stop offset="0" stop-color="#ffffff"></stop><stop offset="1" stop-color="#1359bf"></stop></linearGradient></defs><g fill="none" fill-rule="evenodd" stroke="none" stroke-width="1" stroke-linecap="butt" stroke-linejoin="miter" stroke-miterlimit="10" stroke-dasharray="" stroke-dashoffset="0" font-family="none" font-weight="none" font-size="none" text-anchor="none" style="mix-blend-mode: normal"><g transform="scale(5.33333,5.33333)"><path d="M16.526,5.445c2.309,-0.932 4.833,-1.445 7.476,-1.445c9.203,0 16.963,6.229 19.288,14.697c-0.635,0.183 -1.261,1.303 -1.945,1.303c-4.431,-0.001 -22.69,-14.905 -24.819,-14.555z" fill="url(#color-1)"></path><path d="M8.942,10.841c2.053,-2.347 4.647,-4.209 7.584,-5.396c2.129,-0.349 4.323,-0.445 6.476,-0.445c9.763,0 13.912,14 18.343,14c0.684,0 1.311,-0.12 1.945,-0.303c0.381,1.388 0.617,2.835 0.689,4.324c-1.449,1.247 -3.188,2.979 -4.977,2.979c-8.751,-0.001 -27.616,-16.895 -30.06,-15.159z" fill="url(#color-2)"></path><path d="M4.034,22.833c0.264,-4.579 2.071,-8.747 4.908,-11.992c2.444,-1.736 5.2,-2.841 8.06,-2.841c12.175,0 13.249,17 22,17c1.789,0 3.528,-0.732 4.977,-1.979c0.016,0.325 0.024,0.651 0.024,0.979c0,1.204 -0.107,2.384 -0.312,3.529c-1.875,3.133 -4.032,6.471 -7.689,6.471c-10.36,-0.001 -30.758,-15.591 -31.968,-11.167z" fill="url(#color-3)"></path><path d="M5.606,31.861c-1.034,-2.414 -1.606,-5.071 -1.606,-7.862c0,-0.391 0.011,-0.78 0.033,-1.167c1.211,-4.424 4.207,-7.833 7.968,-7.833c10.115,0 13.64,18 24,18c3.657,0 5.815,-2.337 7.689,-5.471c-0.544,3.056 -1.785,5.872 -3.549,8.28c-3.492,2.879 -5.908,4.191 -9.14,4.191c-10.824,0 -25.122,-11.218 -25.395,-8.138z" fill="url(#color-4)"></path><path d="M5.606,31.861c0.273,-3.08 1.336,-5.861 4.908,-5.861c7.315,0 9.663,13 20.488,13c3.232,0 5.648,-0.312 9.14,-3.191c-3.64,4.965 -9.516,8.191 -16.14,8.191c-8.251,-0.001 -15.339,-5.003 -18.396,-12.139z" fill="url(#color-5)"></path></g></g><g fill="#ffffff" fill-rule="nonzero" stroke="none" stroke-width="1" stroke-linecap="butt" stroke-linejoin="miter" stroke-miterlimit="10" stroke-dasharray="" stroke-dashoffset="0" font-family="none" font-weight="none" font-size="none" text-anchor="none" style="mix-blend-mode: normal"><g><path d="M67.84,148.80667l-8.23,-15.34h-8.91v15.34h-5.02v-37.91h12.55c4.26667,0 7.55,0.97 9.85,2.91c2.3,1.94667 3.45,4.77667 3.45,8.49v0c0,2.36 -0.63667,4.41667 -1.91,6.17c-1.27333,1.76 -3.05,3.07333 -5.33,3.94v0l8.91,16.09v0.31zM50.7,115.00667v14.38h7.68c2.48667,0 4.46333,-0.64333 5.93,-1.93c1.46667,-1.28667 2.2,-3.00667 2.2,-5.16v0c0,-2.34 -0.7,-4.13667 -2.1,-5.39c-1.39333,-1.24667 -3.41,-1.88 -6.05,-1.9v0zM89.48,149.32667v0c-3.82,0 -6.93,-1.25333 -9.33,-3.76c-2.39333,-2.50667 -3.59,-5.86 -3.59,-10.06v0v-0.89c0,-2.79333 0.53333,-5.29 1.6,-7.49c1.06667,-2.19333 2.56,-3.91 4.48,-5.15c1.92,-1.24 4,-1.86 6.24,-1.86v0c3.66,0 6.50667,1.20667 8.54,3.62c2.03333,2.40667 3.05,5.86 3.05,10.36v0v2.01h-19.09c0.06667,2.77333 0.87667,5.01667 2.43,6.73c1.55333,1.70667 3.53,2.56 5.93,2.56v0c1.7,0 3.14,-0.34667 4.32,-1.04c1.18,-0.69333 2.21333,-1.61333 3.1,-2.76v0l2.94,2.29c-2.36,3.62667 -5.9,5.44 -10.62,5.44zM88.88,124.06667v0c-1.94667,0 -3.58,0.71 -4.9,2.13c-1.32,1.41333 -2.13667,3.39667 -2.45,5.95v0h14.12v-0.37c-0.14,-2.44667 -0.8,-4.34333 -1.98,-5.69c-1.18,-1.34667 -2.77667,-2.02 -4.79,-2.02zM128.49,148.80667h-5.05c-0.28,-0.55333 -0.50667,-1.54333 -0.68,-2.97v0c-2.24,2.32667 -4.91333,3.49 -8.02,3.49v0c-2.78,0 -5.06,-0.78333 -6.84,-2.35c-1.78,-1.57333 -2.67,-3.56667 -2.67,-5.98v0c0,-2.93333 1.11667,-5.21333 3.35,-6.84c2.23333,-1.62 5.37,-2.43 9.41,-2.43v0h4.69v-2.21c0,-1.68667 -0.50333,-3.03 -1.51,-4.03c-1.00667,-0.99333 -2.49,-1.49 -4.45,-1.49v0c-1.72,0 -3.16333,0.43333 -4.33,1.3c-1.16,0.86667 -1.74,1.91667 -1.74,3.15v0h-4.84c0,-1.40667 0.49667,-2.76667 1.49,-4.08c1,-1.30667 2.35667,-2.34333 4.07,-3.11c1.70667,-0.76 3.58333,-1.14 5.63,-1.14v0c3.24667,0 5.79,0.81 7.63,2.43c1.84,1.62667 2.79667,3.86333 2.87,6.71v0v12.96c0,2.58667 0.33,4.64667 0.99,6.18v0zM115.44,145.13667v0c1.51333,0 2.94667,-0.39 4.3,-1.17c1.35333,-0.78 2.33333,-1.79667 2.94,-3.05v0v-5.78h-3.78c-5.9,0 -8.85,1.72667 -8.85,5.18v0c0,1.51333 0.50333,2.69667 1.51,3.55c1.00667,0.84667 2.3,1.27 3.88,1.27zM146.35,145.39667v0c1.72,0 3.22333,-0.52 4.51,-1.56c1.28,-1.04 1.99,-2.34333 2.13,-3.91v0h4.56c-0.08667,1.61333 -0.64333,3.15 -1.67,4.61c-1.02,1.46 -2.38667,2.62333 -4.1,3.49c-1.70667,0.86667 -3.51667,1.3 -5.43,1.3v0c-3.83333,0 -6.88333,-1.28 -9.15,-3.84c-2.26667,-2.56 -3.4,-6.06 -3.4,-10.5v0v-0.81c0,-2.74667 0.50333,-5.18667 1.51,-7.32c1.00667,-2.13333 2.45333,-3.79 4.34,-4.97c1.88,-1.18 4.10667,-1.77 6.68,-1.77v0c3.16,0 5.78333,0.94333 7.87,2.83c2.09333,1.89333 3.21,4.35 3.35,7.37v0h-4.56c-0.14,-1.82 -0.83,-3.31667 -2.07,-4.49c-1.24,-1.17333 -2.77,-1.76 -4.59,-1.76v0c-2.45333,0 -4.35,0.88333 -5.69,2.65c-1.34667,1.76 -2.02,4.30667 -2.02,7.64v0v0.91c0,3.24667 0.66667,5.74667 2,7.5c1.34,1.75333 3.25,2.63 5.73,2.63zM167.78,108.80667v15.24c2.14,-2.62 4.92,-3.93 8.34,-3.93v0c5.95333,0 8.95667,3.35667 9.01,10.07v0v18.62h-4.82v-18.64c-0.02,-2.03333 -0.48333,-3.53667 -1.39,-4.51c-0.91333,-0.97333 -2.33333,-1.46 -4.26,-1.46v0c-1.56,0 -2.93333,0.41667 -4.12,1.25c-1.18,0.83333 -2.1,1.93 -2.76,3.29v0v20.07h-4.81v-40zM206.14,117.40667v11.06h10.58v4.56h-10.58v11.98h-4.84v-11.98h-10.57v-4.56h10.57v-11.06z"></path></g></g></svg>