<?xml version="1.0" standalone="no"?>
<!DOCTYPE svg PUBLIC "-//W3C//DTD SVG 20010904//EN"
 "http://www.w3.org/TR/2001/REC-SVG-20010904/DTD/svg10.dtd">
<svg version="1.0" xmlns="http://www.w3.org/2000/svg"
 width="500.000000pt" height="500.000000pt" viewBox="0 0 500.000000 500.000000"
 preserveAspectRatio="xMidYMid meet">

<g transform="translate(0.000000,500.000000) scale(0.100000,-0.100000)"
fill="#000000" stroke="none">
<path d="M2597 2473 c-48 -120 -89 -226 -93 -235 -5 -15 0 -18 27 -18 33 0 35
3 62 70 l29 71 86 -3 86 -3 26 -65 c24 -59 29 -65 58 -68 18 -2 32 0 32 5 0 4
-40 109 -89 233 -120 304 -110 303 -224 13z m142 28 c11 -36 21 -69 21 -73 0
-4 -25 -8 -55 -8 -30 0 -55 3 -55 8 0 21 54 152 60 145 4 -4 17 -37 29 -72z"/>
<path d="M3464 2671 c-58 -26 -84 -63 -84 -120 0 -49 17 -84 51 -101 11 -6 57
-17 102 -25 90 -16 123 -39 111 -79 -10 -33 -24 -45 -65 -58 -52 -15 -115 3
-131 38 -9 19 -19 24 -45 24 -31 0 -34 -2 -28 -22 13 -42 34 -66 78 -87 112
-54 257 10 257 114 0 68 -45 110 -135 125 -93 16 -103 19 -119 36 -38 37 0
100 66 110 38 7 91 -14 106 -42 6 -10 19 -14 40 -12 l32 3 -17 35 c-21 42 -90
80 -143 80 -19 0 -53 -9 -76 -19z"/>
<path d="M1605 2480 c-69 -207 -90 -245 -147 -262 -13 -3 -105 -6 -205 -7
l-183 -1 0 -28 c0 -15 7 -38 16 -50 15 -22 19 -22 245 -22 246 0 270 4 301 52
23 35 148 419 148 454 0 40 -27 64 -72 64 l-36 0 -67 -200z"/>
<path d="M1890 2450 l0 -230 140 0 140 0 0 35 0 35 -110 0 -110 0 0 195 0 195
-30 0 -30 0 0 -230z"/>
<path d="M2210 2450 l0 -230 140 0 140 0 0 35 0 35 -110 0 -110 0 0 65 0 65
111 0 110 0 -3 33 -3 32 -107 3 -108 3 0 64 0 65 110 0 110 0 0 30 0 30 -140
0 -140 0 0 -230z"/>
<path d="M2940 2451 l0 -231 91 0 c112 0 166 13 213 52 115 94 108 288 -13
373 -41 29 -47 30 -167 33 l-124 4 0 -231z m237 152 c109 -51 117 -221 13
-290 -27 -19 -47 -23 -111 -23 l-79 0 0 165 0 165 71 0 c45 0 84 -6 106 -17z"/>
</g>
</svg>
